PathFileType	3	(X/Y/Z)	D:\VICON_DB\Goncalves\Pilot01\09-03-2026\bw_sq_02.trc
DataRate	CameraRate	NumFrames	NumMarkers	Units	OrigDataRate	OrigDataStartFrame	OrigNumFrames
200.0	200.0	9	34	mm	200.0	252	670	
Frame#	Time	LASI			RASI			LPSI			RPSI			LTHI			LTHAP			LTHAD			LKNE			LKNM			LTIB			LTIAP			LTIAD			LANK			LMED			LHEE			LTOE			LFMH			LSMH			LVMH			RTHI			RTHAP			RTHAD			RKNE			RKNM			RTIB			RTIAP			RTIAD			RANK			RMED			RHEE			RTOE			RFMH			RSMH			RVMH			
		X1	Y1	Z1	X2	Y2	Z2	X3	Y3	Z3	X4	Y4	Z4	X5	Y5	Z5	X6	Y6	Z6	X7	Y7	Z7	X8	Y8	Z8	X9	Y9	Z9	X10	Y10	Z10	X11	Y11	Z11	X12	Y12	Z12	X13	Y13	Z13	X14	Y14	Z14	X15	Y15	Z15	X16	Y16	Z16	X17	Y17	Z17	X18	Y18	Z18	X19	Y19	Z19	X20	Y20	Z20	X21	Y21	Z21	X22	Y22	Z22	X23	Y23	Z23	X24	Y24	Z24	X25	Y25	Z25	X26	Y26	Z26	X27	Y27	Z27	X28	Y28	Z28	X29	Y29	Z29	X30	Y30	Z30	X31	Y31	Z31	X32	Y32	Z32	X33	Y33	Z33	X34	Y34	Z34	
252	1.255	290.16302	579.44421	-1043.1045	271.73093	583.63342	-1373.2853				444.72681	696.14716	-1243.6808	240.71489	561.90112	-1038.5565	280.54068	579.31409	-1072.9594	212.58984	503.53461	-992.72809	92.116341	397.10522	-976.21387				158.55518	229.55365	-980.01727	59.698246	277.26376	-1025.3159	135.90616	192.82735	-1016.4009	276.27228	66.039169	-1032.5233				318.80936	72.024712	-1085.691	199.52367	69.861237	-1051.2273	146.1732	44.768345	-1075.955				164.05933	26.541885	-995.78027	197.27606	496.11862	-1405.0531	277.36667	588.97266	-1357.014	199.7041	557.95239	-1353.5878	96.098015	402.18958	-1391.0468				127.81419	233.37894	-1389.0984	63.53788	264.72198	-1337.2302	117.50455	199.58284	-1331.74	285.77222	61.429756	-1353.6532				322.80658	65.349358	-1309.2534	198.42598	67.166878	-1333.871	150.50807	48.975594	-1310.4054				165.85797	21.191023	-1383.1838
253	1.26	289.17007	577.99719	-1047.0741	272.73978	582.7674	-1371.1875				445.02264	694.16901	-1243.7567	240.93431	560.80927	-1038.8217	282.008	577.93665	-1069.2585	212.55379	502.64847	-992.95551	91.634552	396.73944	-976.42047				158.19814	229.37553	-980.18262	59.292416	276.95923	-1025.5872	135.64816	192.62787	-1016.606	276.23752	66.056999	-1032.576				318.77759	72.045418	-1085.7286	199.49559	69.860153	-1051.3114	146.16809	44.753754	-1076.007				164.06264	26.582518	-995.82483	197.30664	495.15527	-1404.996	276.88266	586.85187	-1359.1187	200.06285	556.95734	-1353.4994	95.700363	401.72049	-1390.9209				127.48474	233.1512	-1388.9419	63.186714	264.41629	-1337.0236	117.26962	199.35434	-1331.5856	285.74655	61.445187	-1353.6097				322.78366	65.37426	-1309.2231	198.4281	67.164711	-1333.8108	150.50793	48.965488	-1310.3572				165.83907	21.232487	-1383.1674
254	1.265	288.03308	576.52142	-1051.4435	273.80353	581.96027	-1368.8667				445.30804	692.20599	-1243.8276	241.14175	559.71265	-1039.0831	283.59167	576.5918	-1065.1539	212.51045	501.75452	-993.18127	91.150696	396.36673	-976.63135				157.84642	229.19945	-980.35181	58.889297	276.65167	-1025.859	135.39206	192.42676	-1016.8103	276.20612	66.074043	-1032.631				318.74765	72.063232	-1085.7697	199.46909	69.857971	-1051.3967	146.16475	44.737133	-1076.0609				164.06625	26.622604	-995.87048	197.32243	494.19818	-1404.9202	276.32199	584.69623	-1361.4421	200.40837	555.96515	-1353.3933	95.297333	401.25311	-1390.764				127.15909	232.92917	-1388.7609	62.837326	264.1123	-1336.7905	117.0386	199.12897	-1331.4103	285.72168	61.463837	-1353.5625				322.76239	65.399017	-1309.189	198.43187	67.162987	-1333.7439	150.51007	48.9543	-1310.3031				165.81851	21.279306	-1383.1484
255	1.27	286.78912	575.01898	-1056.0892	274.89841	581.19269	-1366.3915				445.57953	690.25873	-1243.8926	241.33862	558.61096	-1039.3369	285.25171	575.27332	-1060.7649	212.4626	500.85117	-993.40143	90.66777	395.98529	-976.84113				157.50151	229.02425	-980.52087	58.489197	276.33994	-1026.1263	135.13882	192.22343	-1017.0103	276.17844	66.089714	-1032.6875				318.71973	72.078499	-1085.8137	199.44431	69.854576	-1051.4832	146.16328	44.718624	-1076.116				164.07059	26.661789	-995.91681	197.32443	493.24738	-1404.8295	275.70444	582.52405	-1363.9183	200.74065	554.97546	-1353.272	94.889893	400.78699	-1390.5823				126.83731	232.71182	-1388.5605	62.489479	263.80905	-1336.536	116.81128	198.90602	-1331.2181	285.69803	61.485336	-1353.5115				322.7431	65.42366	-1309.1506	198.43706	67.161606	-1333.6711	150.51469	48.941986	-1310.2434				165.79706	21.330658	-1383.1263
256	1.275	285.49307	573.495	-1060.8331	275.99011	580.43719	-1363.8607				445.83334	688.32812	-1243.9507	241.5262	557.50439	-1039.5795	286.93063	573.97418	-1056.2668	212.41273	499.93747	-993.61212	90.188431	395.59409	-977.04443				157.16428	228.84869	-980.68628	58.092091	276.02304	-1026.3839	134.88925	192.0174	-1017.203	276.15469	66.103569	-1032.7446				318.69403	72.091866	-1085.8602	199.42128	69.850014	-1051.5695	146.16377	44.698429	-1076.1719				164.07584	26.699732	-995.96344	197.31349	492.30264	-1404.7275	275.06003	580.36206	-1366.451	201.0594	553.98785	-1353.1384	94.478859	400.32147	-1390.3823				126.51916	232.49785	-1388.3467	62.142757	263.50555	-1336.2657	116.58719	198.68439	-1331.0133	285.6759	61.509197	-1353.4572				322.7258	65.44828	-1309.1082	198.44351	67.160446	-1333.5936	150.52184	48.928532	-1310.1792				165.77542	21.385477	-1383.1016
257	1.28	284.20837	571.95605	-1065.4706	277.0394	579.66284	-1361.3865				446.06549	686.41498	-1244.0018	241.70563	556.3938	-1039.8073	288.56323	572.68616	-1051.8607	212.36284	499.01337	-993.80957	89.714905	395.19254	-977.2356				156.83511	228.67148	-980.84412	57.69759	275.70004	-1026.6267	134.64369	191.80814	-1017.3846	276.13483	66.115494	-1032.8018				318.6705	72.104141	-1085.9086	199.39984	69.844406	-1051.655	146.16612	44.676842	-1076.2279				164.08214	26.736134	-996.00989	197.29037	491.36337	-1404.6189	274.42346	578.24017	-1368.9291	201.36386	553.00208	-1352.9968	94.064842	399.85571	-1390.1714				126.20413	232.28549	-1388.1249	61.796478	263.20038	-1335.9861	116.36566	198.46281	-1330.8013	285.65558	61.534809	-1353.4004				322.71057	65.473007	-1309.0619	198.45116	67.159378	-1333.5126	150.53137	48.913994	-1310.1119				165.75468	21.442299	-1383.0742
258	1.285	282.99048	570.40894	-1069.8232	278.01196	578.84344	-1359.0657				446.27185	684.51959	-1244.0459	241.87782	555.28076	-1040.0171	290.09262	571.40204	-1047.7218	212.3143	498.07953	-993.99048	89.248901	394.78049	-977.409				156.51393	228.49118	-980.99054	57.305111	275.37042	-1026.8502	134.40228	191.59517	-1017.5526	276.11832	66.125595	-1032.858				318.64902	72.116333	-1085.9579	199.37975	69.837944	-1051.7389	146.17007	44.654217	-1076.2832				164.08952	26.77072	-996.0556	197.25549	490.42871	-1404.5079	273.8248	576.18402	-1371.2551	201.65292	552.01733	-1352.851	93.648048	399.38861	-1389.9575				125.89148	232.07271	-1387.901	61.449688	262.89212	-1335.704	116.14585	198.23981	-1330.587	285.63715	61.561508	-1353.3414				322.69717	65.498085	-1309.012	198.45982	67.158257	-1333.4294	150.54292	48.898453	-1310.0426				165.73607	21.499273	-1383.0439
259	1.29	281.87772	568.85968	-1073.7682	278.88373	577.96167	-1356.9651				446.44968	682.6424	-1244.0825	242.04338	554.16687	-1040.2069	291.47968	570.11658	-1043.9709	212.26787	497.13739	-994.15179	88.791534	394.35825	-977.55927				156.20009	228.30635	-981.12177	56.914059	275.03394	-1027.0499	134.16479	191.37796	-1017.7043	276.10434	66.134247	-1032.9119				318.62921	72.129448	-1086.0074	199.3606	69.830933	-1051.8198	146.17535	44.630955	-1076.337				164.09787	26.803249	-996.09991	197.20892	489.49786	-1404.3999	273.28412	574.21082	-1373.3632	201.92503	551.03333	-1352.7053	93.228333	398.91913	-1389.749				125.58027	231.85696	-1387.6807	61.101158	262.57938	-1335.4263	115.92659	198.01379	-1330.3762	285.62048	61.588604	-1353.2812				322.68503	65.523827	-1308.9587	198.46916	67.156982	-1333.3461	150.55597	48.882095	-1309.9731				165.72073	21.55435	-1383.0116
260	1.295	280.89148	567.31311	-1077.2361	279.6405	577.00861	-1355.1219				446.59778	680.78455	-1244.1121	242.20241	553.05426	-1040.3749	292.7023	568.82666	-1040.6765	212.22345	496.18866	-994.29108	88.343277	393.92645	-977.68121				155.89258	228.1154	-981.23444	56.52372	274.69061	-1027.2212	133.93076	191.15605	-1017.8373	276.09189	66.141953	-1032.9628				318.6105	72.144562	-1086.0568	199.34198	69.823708	-1051.8969	146.18155	44.607544	-1076.3883				164.10707	26.83349	-996.14227	197.15034	488.56995	-1404.2998	272.81174	572.32916	-1375.2153	202.17827	550.04926	-1352.5649	92.805077	398.4462	-1389.5542				125.26931	231.6358	-1387.4691	60.749458	262.26053	-1335.1604	115.70648	197.78333	-1330.1746	285.60532	61.615448	-1353.2206				322.67352	65.550598	-1308.903	198.47873	67.155479	-1333.2642	150.56975	48.865223	-1309.9049				165.70969	21.605574	-1382.9777
